<svg width="96" height="96" viewBox="0 0 96 96" fill="none" xmlns="http://www.w3.org/2000/svg">
<rect x="0.5" y="0.5" width="95" height="95" rx="47.5" fill="#F3F4F6"/>
<rect x="0.5" y="0.5" width="95" height="95" rx="47.5" stroke="#DFE1E5"/>
<path d="M54.44 42H55.61C56.93 42 58 43.07 58 44.39V54.62C58 55.94 56.93 57.01 55.61 57.01H40.39C39.07 57 38 55.93 38 54.61V44.39C38 43.07 39.07 42 40.39 42H41.56C42.42 42 43.19 41.45 43.46 40.63L43.55 40.37C43.82 39.55 44.58 39 45.44 39H50.56C51.42 39 52.19 39.55 52.46 40.37L52.55 40.63C52.82 41.45 53.58 42 54.44 42Z" stroke="#A5ABB8" stroke-width="2" stroke-miterlimit="10"/>
<path d="M48 53C50.2091 53 52 51.2091 52 49C52 46.7909 50.2091 45 48 45C45.7909 45 44 46.7909 44 49C44 51.2091 45.7909 53 48 53Z" stroke="#A5ABB8" stroke-width="2" stroke-miterlimit="10"/>
</svg>
