<svg width="92" height="89" viewBox="0 0 92 89" fill="none" xmlns="http://www.w3.org/2000/svg">
<path d="M8.69507 88.1831C8.69507 88.1831 1.13043 34.1485 0.766069 31.5707C0.401705 28.993 0.978162 28.3567 3.50696 28.0413C6.03575 27.7259 15.7431 26.2793 17.6845 26.0346C19.626 25.7898 20.4417 26.3935 22.0841 28.2642C23.7264 30.135 23.8787 30.9072 27.3103 30.358C30.7473 29.8087 71.7409 23.8321 74.3839 23.4514C77.0269 23.0707 78.3484 23.2774 78.6475 25.8333C78.9466 28.3893 82.9003 77.5132 82.9003 77.5132L8.69507 88.1831Z" fill="#8B5CF6"/>
<path d="M8.69507 88.1831C8.69507 88.1831 79.0282 78.1495 82.5468 77.5676C86.0653 76.9857 86.1741 76.6975 86.8974 69.5135C87.6207 62.3295 90.8891 35.2307 91.2861 31.7121C91.6831 28.1935 89.5404 28.4872 86.2067 28.993C83.4822 29.4063 22.3995 38.238 19.0006 38.7329C15.3678 39.2604 14.7261 39.3311 14.2312 43.8177C13.807 47.6408 8.69507 88.1831 8.69507 88.1831Z" fill="#C4B5FD"/>
<path d="M31.378 26.5294C31.378 26.5294 31.3237 26.5294 31.2965 26.524C30.9974 26.4805 30.7961 26.2031 30.8396 25.904C30.8505 25.8496 31.0517 24.5227 31.4922 22.6465C31.5629 22.3528 31.8566 22.1734 32.1448 22.2386C32.4385 22.3093 32.618 22.5975 32.5527 22.8912C32.1231 24.7239 31.9219 26.0508 31.9164 26.0672C31.8729 26.3391 31.6445 26.5294 31.378 26.5294ZM32.8736 20.1558C32.8192 20.1558 32.7648 20.1503 32.7104 20.1286C32.4222 20.0416 32.2645 19.737 32.3515 19.4488C32.705 18.3122 33.0857 17.2626 33.4881 16.3272C33.6077 16.0499 33.9231 15.9248 34.2005 16.0444C34.4778 16.1641 34.6029 16.4849 34.4833 16.7568C34.0972 17.6596 33.7274 18.6711 33.3848 19.7751C33.3141 20.0089 33.0965 20.1558 32.8681 20.1558H32.8736ZM49.2101 16.7133C49.2101 16.7133 49.1721 16.7133 49.1503 16.7133C47.6222 16.5448 46.6324 15.8432 45.9417 15.2559C45.7133 15.0601 45.6861 14.7175 45.8819 14.4891C46.0777 14.2607 46.4203 14.2335 46.6487 14.4293C47.5079 15.1634 48.2911 15.5278 49.2645 15.6311C49.5636 15.6638 49.7811 15.9302 49.7431 16.2293C49.7104 16.5067 49.4766 16.7133 49.2047 16.7133H49.2101ZM52.3861 16.2185C52.1849 16.2185 51.9891 16.1043 51.8966 15.9085C51.7661 15.6366 51.8803 15.3103 52.1522 15.1852C52.9788 14.7882 53.7348 14.1356 54.3874 13.2437C54.5668 12.999 54.904 12.9501 55.1487 13.1241C55.3934 13.3035 55.4424 13.6407 55.2684 13.8854C54.507 14.9241 53.6151 15.6964 52.6254 16.1695C52.5492 16.2076 52.4677 16.2239 52.3915 16.2239L52.3861 16.2185ZM35.5274 14.2063C35.4241 14.2063 35.3153 14.1737 35.2229 14.1138C34.9727 13.9453 34.9129 13.6081 35.0815 13.3579C35.8592 12.2159 36.713 11.4056 37.6049 10.9433C37.8713 10.8074 38.1976 10.9107 38.339 11.1772C38.475 11.4437 38.3717 11.77 38.1052 11.9113C37.371 12.292 36.6586 12.9827 35.9788 13.9779C35.8755 14.1302 35.7015 14.2172 35.5274 14.2172V14.2063ZM43.9241 13.1458C43.8045 13.1458 43.6848 13.1078 43.5815 13.0262C42.744 12.3464 41.8957 11.9331 40.9113 11.721C40.6177 11.6557 40.4328 11.3675 40.4926 11.0739C40.5578 10.7802 40.8461 10.5898 41.1397 10.6551C42.2981 10.9053 43.2933 11.3893 44.2667 12.1778C44.5006 12.3682 44.5332 12.7108 44.3483 12.9446C44.2395 13.0751 44.0818 13.1458 43.9241 13.1458ZM56.3397 11.2152C56.2744 11.2152 56.2092 11.2044 56.1494 11.1826C55.8666 11.0793 55.7252 10.7639 55.8285 10.4811C56.3886 8.98012 56.6062 7.68037 56.6442 7.43021C56.6877 7.13111 56.9597 6.92445 57.2642 6.9734C57.5633 7.0169 57.7645 7.29425 57.721 7.59336C57.683 7.85983 57.4491 9.25747 56.8509 10.8618C56.7693 11.0793 56.5627 11.2152 56.3397 11.2152Z" fill="#141619"/>
<path d="M56.318 2.34544C56.1059 2.55753 55.7633 2.55753 55.5512 2.34544L54.3983 1.19253C54.1862 0.980436 54.1862 0.637825 54.3983 0.425732C54.6104 0.213639 54.953 0.213639 55.1651 0.425732L56.318 1.57865C56.5301 1.79074 56.5301 2.13335 56.318 2.34544Z" fill="#141619"/>
<path d="M56.318 5.42352L55.1651 6.57643C54.953 6.78852 54.6104 6.78852 54.3983 6.57643C54.1862 6.36434 54.1862 6.02173 54.3983 5.80963L55.5512 4.65672C55.7633 4.44463 56.1059 4.44463 56.318 4.65672C56.5301 4.86881 56.5301 5.21142 56.318 5.42352Z" fill="#141619"/>
<path d="M60.549 6.57643C60.3369 6.78852 59.9943 6.78852 59.7822 6.57643L58.6293 5.42352C58.4172 5.21142 58.4172 4.86881 58.6293 4.65672C58.8414 4.44463 59.184 4.44463 59.3961 4.65672L60.549 5.80963C60.7611 6.02173 60.7611 6.36434 60.549 6.57643Z" fill="#141619"/>
<path d="M60.549 1.1925L59.3961 2.34541C59.184 2.5575 58.8414 2.5575 58.6293 2.34541C58.4172 2.13332 58.4172 1.79071 58.6293 1.57861L59.7822 0.425701C59.9943 0.213609 60.3369 0.213609 60.549 0.425701C60.7611 0.637794 60.7611 0.980405 60.549 1.1925Z" fill="#141619"/>
</svg>
