<svg width="24" height="24" viewBox="0 0 24 24" fill="none" xmlns="http://www.w3.org/2000/svg">
<g clip-path="url(#clip0_3249_2579)">
<rect width="24" height="24" rx="12" fill="#DFE1E5"/>
<path d="M20.2125 20.845C18.0775 22.8075 15.23 24.005 12.1 24.005C8.97 24.005 6.1325 22.8125 4 20.8575C5.03 19.2875 6.8025 18.25 8.8175 18.25H15.405C17.415 18.25 19.185 19.2825 20.2125 20.845Z" fill="white"/>
<path d="M12.11 17C14.8725 17 17.11 14.7625 17.11 12C17.11 9.2375 14.87 7 12.11 7C9.34999 7 7.10999 9.2375 7.10999 12C7.10999 14.7625 9.34749 17 12.11 17Z" fill="white"/>
</g>
<defs>
<clipPath id="clip0_3249_2579">
<rect width="24" height="24" rx="12" fill="white"/>
</clipPath>
</defs>
</svg>
