<svg width="24" height="24" viewBox="0 0 24 24" fill="none" xmlns="http://www.w3.org/2000/svg">
<path d="M11.9999 12C14.7614 12 16.9999 9.76142 16.9999 7C16.9999 4.23858 14.7614 2 11.9999 2C9.23852 2 6.99994 4.23858 6.99994 7C6.99994 9.76142 9.23852 12 11.9999 12Z" stroke="#6D28D9" stroke-width="1.5" stroke-linecap="round" stroke-linejoin="round"/>
<path d="M19.2099 15.74L15.6699 19.2801C15.5299 19.4201 15.3999 19.68 15.3699 19.87L15.1799 21.22C15.1099 21.71 15.4499 22.05 15.9399 21.98L17.2899 21.79C17.4799 21.76 17.7499 21.63 17.8799 21.49L21.4199 17.95C22.0299 17.34 22.3199 16.63 21.4199 15.73C20.5299 14.84 19.8199 15.13 19.2099 15.74Z" stroke="#6D28D9" stroke-width="1.5" stroke-miterlimit="10" stroke-linecap="round" stroke-linejoin="round"/>
<path d="M18.7 16.25C19 17.33 19.8399 18.17 20.9199 18.47" stroke="#6D28D9" stroke-width="1.5" stroke-miterlimit="10" stroke-linecap="round" stroke-linejoin="round"/>
<path d="M3.40991 22C3.40991 18.13 7.25994 15 11.9999 15C13.0399 15 14.0399 15.15 14.9699 15.43" stroke="#6D28D9" stroke-width="1.5" stroke-linecap="round" stroke-linejoin="round"/>
</svg>
