<svg width="24" height="24" viewBox="0 0 24 24" fill="none" xmlns="http://www.w3.org/2000/svg">
<path d="M20.6427 11.7324L12.3936 19.9814C12.0708 20.3044 11.6875 20.5605 11.2657 20.7353C10.8438 20.91 10.3917 21 9.93504 21C9.47842 21 9.02628 20.91 8.60443 20.7353C8.18258 20.5605 7.79929 20.3044 7.47646 19.9814L5.01787 17.5228C4.36613 16.8709 4 15.9868 4 15.065C4 14.1431 4.36613 13.259 5.01787 12.6071L13.812 3.8143C14.3336 3.2929 15.0409 3 15.7783 3C16.5158 3 17.2231 3.2929 17.7447 3.8143L18.7278 4.79745C19.2492 5.31901 19.5421 6.02629 19.5421 6.76376C19.5421 7.50124 19.2492 8.20852 18.7278 8.73008L10.9182 16.5397C10.6574 16.8004 10.3038 16.9468 9.93504 16.9468C9.5663 16.9468 9.21266 16.8004 8.95188 16.5397L8.461 16.0474C8.2003 15.7866 8.05385 15.433 8.05385 15.0643C8.05385 14.6955 8.2003 14.3419 8.461 14.0811L13.6396 8.90112" stroke="#141619" stroke-width="1.5" stroke-linecap="round" stroke-linejoin="round"/>
</svg>
